{
  "accessors": [
    {
      "bufferView": 2,
      "componentType": 5126,
      "count": 1539,
      "max": [
        2.600006103515625,
        2.6000208854675293,
        4.000017166137695
      ],
      "min": [
        -2.5999948978424072,
        -2.619978904724121,
        1.5999999959603883e-05
      ],
      "type": "VEC3"
    },
    {
      "bufferView": 2,
      "byteOffset": 18468,
      "componentType": 5126,
      "count": 1539,
      "max": [
        1.0,
        1.0,
        1.0
      ],
      "min": [
        -1.0,
        -1.0,
        -1.0
      ],
      "type": "VEC3"
    },
    {
      "bufferView": 3,
      "componentType": 5126,
      "count": 1539,
      "max": [
        1.0,
        1.0,
        1.0,
        1.0
      ],
      "min": [
        -1.0,
        -1.0,
        -1.0,
        -1.0
      ],
      "type": "VEC4"
    },
    {
      "bufferView": 1,
      "componentType": 5126,
      "count": 1539,
      "max": [
        0.9878969788551331,
        0.996042013168335
      ],
      "min": [
        0.0005000000237487257,
        0.0005000000237487257
      ],
      "type": "VEC2"
    },
    {
      "bufferView": 0,
      "componentType": 5125,
      "count": 6039,
      "type": "SCALAR"
    },
    {
      "bufferView": 2,
      "byteOffset": 36936,
      "componentType": 5126,
      "count": 430,
      "max": [
        2.232534885406494,
        2.1570799350738525,
        2.0
      ],
      "min": [
        -2.232534885406494,
        -2.1570799350738525,
        0.0
      ],
      "type": "VEC3"
    },
    {
      "bufferView": 2,
      "byteOffset": 42096,
      "componentType": 5126,
      "count": 430,
      "max": [
        1.0,
        1.0,
        1.0
      ],
      "min": [
        -1.0,
        -1.0,
        -1.0
      ],
      "type": "VEC3"
    },
    {
      "bufferView": 3,
      "byteOffset": 24624,
      "componentType": 5126,
      "count": 430,
      "max": [
        1.0,
        1.0,
        0.998405396938324,
        1.0
      ],
      "min": [
        -1.0,
        -1.0,
        -0.6692221760749817,
        -1.0
      ],
      "type": "VEC4"
    },
    {
      "bufferView": 1,
      "byteOffset": 12312,
      "componentType": 5126,
      "count": 430,
      "max": [
        0.9880949854850769,
        0.9986500144004822
      ],
      "min": [
        0.0005000000237487257,
        0.04388200119137764
      ],
      "type": "VEC2"
    },
    {
      "bufferView": 0,
      "byteOffset": 24156,
      "componentType": 5125,
      "count": 1020,
      "type": "SCALAR"
    },
    {
      "bufferView": 2,
      "byteOffset": 47256,
      "componentType": 5126,
      "count": 460,
      "max": [
        0.2199999988079071,
        2.037081003189087,
        7.251762866973877
      ],
      "min": [
        -2.5260000228881836,
        -2.0370800495147705,
        -0.2200009971857071
      ],
      "type": "VEC3"
    },
    {
      "bufferView": 2,
      "byteOffset": 52776,
      "componentType": 5126,
      "count": 460,
      "max": [
        1.0,
        1.0,
        1.0
      ],
      "min": [
        -1.0,
        -1.0,
        -1.0
      ],
      "type": "VEC3"
    },
    {
      "bufferView": 3,
      "byteOffset": 31504,
      "componentType": 5126,
      "count": 460,
      "max": [
        1.0,
        1.0,
        0.7151841521263123,
        1.0
      ],
      "min": [
        -1.0,
        -1.0,
        -1.0,
        -1.0
      ],
      "type": "VEC4"
    },
    {
      "bufferView": 1,
      "byteOffset": 15752,
      "componentType": 5126,
      "count": 460,
      "max": [
        0.9831100106239319,
        0.9994999766349792
      ],
      "min": [
        0.019781000912189484,
        0.024600999429821968
      ],
      "type": "VEC2"
    },
    {
      "bufferView": 0,
      "byteOffset": 28236,
      "componentType": 5125,
      "count": 1482,
      "type": "SCALAR"
    }
  ],
  "asset": {
    "extras": {
      "author": "Kostroman (https://sketchfab.com/Kostroman)",
      "license": "CC-BY-4.0 (http://creativecommons.org/licenses/by/4.0/)",
      "source": "https://sketchfab.com/3d-models/xiaomi-mi-smart-plug-56d1ab8187c44535a9101b8956d330fd",
      "title": "xiaomi mi smart plug"
    },
    "generator": "Sketchfab-12.65.0",
    "version": "2.0"
  },
  "bufferViews": [
    {
      "buffer": 0,
      "byteLength": 34164,
      "name": "floatBufferViews",
      "target": 34963
    },
    {
      "buffer": 0,
      "byteLength": 19432,
      "byteOffset": 34164,
      "byteStride": 8,
      "name": "floatBufferViews",
      "target": 34962
    },
    {
      "buffer": 0,
      "byteLength": 58296,
      "byteOffset": 53596,
      "byteStride": 12,
      "name": "floatBufferViews",
      "target": 34962
    },
    {
      "buffer": 0,
      "byteLength": 38864,
      "byteOffset": 111892,
      "byteStride": 16,
      "name": "floatBufferViews",
      "target": 34962
    }
  ],
  "buffers": [
    {
      "byteLength": 150756,
      "uri": "scene.bin"
    }
  ],
  "images": [
    {
      "uri": "textures/Body_box_baseColor.jpeg"
    },
    {
      "uri": "textures/Body_box_metallicRoughness.png"
    },
    {
      "uri": "textures/Body_box_normal.png"
    },
    {
      "uri": "textures/Chrome_baseColor.jpeg"
    },
    {
      "uri": "textures/Chrome_metallicRoughness.png"
    },
    {
      "uri": "textures/Chrome_normal.png"
    }
  ],
  "materials": [
    {
      "doubleSided": true,
      "name": "Body_box",
      "normalTexture": {
        "index": 2
      },
      "pbrMetallicRoughness": {
        "baseColorTexture": {
          "index": 0
        },
        "metallicRoughnessTexture": {
          "index": 1
        }
      }
    },
    {
      "doubleSided": true,
      "name": "Chrome",
      "normalTexture": {
        "index": 5
      },
      "pbrMetallicRoughness": {
        "baseColorTexture": {
          "index": 3
        },
        "metallicRoughnessTexture": {
          "index": 4
        }
      }
    }
  ],
  "meshes": [
    {
      "name": "defaultMaterial",
      "primitives": [
        {
          "attributes": {
            "NORMAL": 1,
            "POSITION": 0,
            "TANGENT": 2,
            "TEXCOORD_0": 3
          },
          "indices": 4,
          "material": 0,
          "mode": 4
        }
      ]
    },
    {
      "name": "defaultMaterial",
      "primitives": [
        {
          "attributes": {
            "NORMAL": 6,
            "POSITION": 5,
            "TANGENT": 7,
            "TEXCOORD_0": 8
          },
          "indices": 9,
          "material": 0,
          "mode": 4
        }
      ]
    },
    {
      "name": "defaultMaterial",
      "primitives": [
        {
          "attributes": {
            "NORMAL": 11,
            "POSITION": 10,
            "TANGENT": 12,
            "TEXCOORD_0": 13
          },
          "indices": 14,
          "material": 1,
          "mode": 4
        }
      ]
    }
  ],
  "nodes": [
    {
      "children": [
        1
      ],
      "matrix": [
        1.0,
        0.0,
        0.0,
        0.0,
        0.0,
        2.220446049250313e-16,
        -1.0,
        0.0,
        0.0,
        1.0,
        2.220446049250313e-16,
        0.0,
        -3.2468459606170654,
        2.384237527847289,
        4.348383903503419,
        1.0
      ],
      "name": "Sketchfab_model"
    },
    {
      "children": [
        2
      ],
      "matrix": [
        1.0,
        0.0,
        0.0,
        0.0,
        0.0,
        -4.371139006309477e-08,
        0.999999999999999,
        0.0,
        0.0,
        -0.999999999999999,
        -4.371139006309477e-08,
        0.0,
        0.0,
        0.0,
        0.0,
        1.0
      ],
      "name": "Collada visual scene group"
    },
    {
      "children": [
        3,
        5,
        7
      ],
      "matrix": [
        6.344979,
        7.724349,
        -0.275099,
        0.0,
        -3.578209,
        2.620027,
        -8.962806,
        0.0,
        -6.851107,
        5.785317,
        4.426335,
        0.0,
        1.430852,
        61.238647,
        -0.930835,
        1.0
      ],
      "name": "xiaomi_mi_smart_plug_low"
    },
    {
      "children": [
        4
      ],
      "matrix": [
        1.0,
        0.0,
        0.0,
        0.0,
        0.0,
        1.0,
        0.0,
        0.0,
        0.0,
        0.0,
        1.0,
        0.0,
        -5e-06,
        -2.1e-05,
        0.109992,
        1.0
      ],
      "name": "Smart_power_socket_box"
    },
    {
      "mesh": 0,
      "name": "defaultMaterial"
    },
    {
      "children": [
        6
      ],
      "matrix": [
        1.0,
        0.0,
        0.0,
        0.0,
        0.0,
        1.0,
        0.0,
        0.0,
        0.0,
        0.0,
        1.0,
        0.0,
        -5e-06,
        -2.1e-05,
        -1.890008,
        1.0
      ],
      "name": "Smart_power_socket_jack"
    },
    {
      "mesh": 1,
      "name": "defaultMaterial"
    },
    {
      "children": [
        8
      ],
      "matrix": [
        1.0,
        0.0,
        0.0,
        0.0,
        0.0,
        1.0,
        0.0,
        0.0,
        0.0,
        0.0,
        1.0,
        0.0,
        1.152994,
        -2.1e-05,
        -3.890007,
        1.0
      ],
      "name": "Smart_power_socket_metall"
    },
    {
      "mesh": 2,
      "name": "defaultMaterial"
    }
  ],
  "samplers": [
    {
      "magFilter": 9729,
      "minFilter": 9987,
      "wrapS": 10497,
      "wrapT": 10497
    }
  ],
  "scene": 0,
  "scenes": [
    {
      "name": "Sketchfab_Scene",
      "nodes": [
        0
      ]
    }
  ],
  "textures": [
    {
      "sampler": 0,
      "source": 0
    },
    {
      "sampler": 0,
      "source": 1
    },
    {
      "sampler": 0,
      "source": 2
    },
    {
      "sampler": 0,
      "source": 3
    },
    {
      "sampler": 0,
      "source": 4
    },
    {
      "sampler": 0,
      "source": 5
    }
  ]
}
